<svg width="26" height="26" fill="none" xmlns="http://www.w3.org/2000/svg"><g clip-path="url(#clip0)"><path fill-rule="evenodd" clip-rule="evenodd" d="M18.465 7.32c.397-.026.793-.053 1.19-.067.206-.007.307.103.322.327.012.174.013.348.014.523l.046 4.635c.002.2.005.4.02.597.008.11.087.19.193.189.373-.003.747-.015 1.12-.04.046-.003.118-.098.125-.156.02-.197.018-.397.02-.597.012-1.296.017-2.592.037-3.887.02-1.394.057-2.789.084-4.183.007-.4.003-.798.012-1.197.005-.232-.007-.491-.203-.613-.352-.22-.531-.686-1.015-.71-.124-.007-.248-.014-.373-.016-.174-.003-.35.002-.524-.001-.374-.008-.403-.025-.486-.415-.053-.242-.05-.499-.123-.734-.049-.155-.158-.33-.292-.412A.92.92 0 0017.92.46c-.097.026-.193.16-.233.267-.05.136-.05.292-.057.44-.008.25.002.499-.007.747-.003.107-.07.19-.18.201a5 5 0 01-.523.03c-.494 0-.663.071-.687-.591-.008-.219-.093-.437-.156-.652a1.187 1.187 0 00-.15-.34c-.21-.3-.529-.37-.862-.331-.283.033-.3.3-.35.514-.04.168-.057.342-.074.515-.017.173-.019.348-.034.522-.01.11-.07.185-.183.2-.198.026-.396.042-.593.07-.368.05-.42.02-.516-.333-.033-.12-.038-.248-.08-.364-.145-.396-.256-.824-.763-.922-.022-.004-.044-.026-.059-.045-.154-.211-.35-.276-.584-.149-.209.113-.21.325-.208.525.008.423.027.847.037 1.27.004.189-.08.292-.248.296-.324.008-.648.01-.972.005-.206-.003-.27-.054-.313-.244-.05-.218-.074-.442-.134-.658a5.89 5.89 0 00-.242-.7C9.676.56 9.52.49 9.332.466c-.374-.047-.666.165-.98.296-.073.03-.137.155-.147.243-.02.197-.005.397-.005.596-.001.223.007.448-.01.67-.003.055-.08.136-.134.149-.12.027-.248.024-.372.023-.247-.003-.493-.013-.74-.019-.191-.213-.077-.475-.11-.713-.007-.049-.001-.1-.011-.149-.076-.353-.23-.657-.552-.85-.182-.11-.385-.084-.553.052-.29.238-.422.52-.383.913.09.904.106.852-.867.913-.25.016-.323-.043-.327-.282-.005-.3-.019-.597-.14-.878-.12-.281-.446-.492-.705-.456a.677.677 0 00-.592.585c-.025.146-.02.298-.025.447-.007.174-.002.348-.014.522-.008.11-.084.193-.195.18-.546-.064-1.086.038-1.629.06-.609.024-.915.403-.824.998.173 1.142.118 2.288.053 3.43A50.732 50.732 0 00.003 9.21c-.017 1.096.04 2.19.118 3.282.058.82.102 1.64.183 2.457.129 1.288.255 2.576.279 3.871.01.481.123.93.29 1.375.148.4.451.672.79.86a3.733 3.733 0 002.009.474c.55-.029 1.091.012 1.638.021.846.015 1.694.005 2.541.005v.038c.823 0 1.645.002 2.468-.001.199-.002.404.01.595-.033.516-.114 1.039-.112 1.56-.145.448-.029.893-.077 1.338-.122.107-.01.184-.08.186-.194.004-.324.005-.647 0-.971-.003-.11-.081-.18-.19-.188a3.54 3.54 0 00-.374-.005c-.796.023-1.59.066-2.384.132-1.44.12-2.89.105-4.333.007-.572-.039-1.137-.104-1.71-.024-.17.024-.349.018-.522.003-.602-.056-.974-.455-1.306-.905a.443.443 0 01-.062-.212c-.1-.939-.219-1.877-.29-2.82-.086-1.141-.106-2.288-.207-3.429-.052-.596-.107-1.19-.112-1.787-.006-.698-.007-1.396-.005-2.093.003-.674-.08-.704.683-.707.099 0 .197-.02.296-.035a24.833 24.833 0 013.72-.271c1.295 0 2.587.034 3.884-.064 1.289-.098 2.586-.106 3.878-.202.991-.074 1.983-.179 2.98-.155.174.004.347-.04.52-.051zm-3.268-1.285c-.996.025-1.988.092-2.971.261-.195.034-.398.024-.597.026-1.296.012-2.591.02-3.887.033-.721.007-1.44-.006-2.161.099-.463.067-.945.012-1.418.012V6.5c-.449 0-.897.004-1.346 0-.202-.003-.287-.076-.288-.257-.006-.747-.006-1.495-.008-2.242 0-.025-.001-.056.013-.072.029-.036.064-.083.103-.09.036-.006.108.025.118.054.054.164.095.331.137.498.024.097.036.197.064.292.09.3.319.482.592.476a.664.664 0 00.608-.47c.058-.189.088-.388.128-.583.023-.11.09-.18.2-.179.25.002.498.009.747.025.19.012.252.077.282.273.018.123.012.252.05.368.1.31.422.431.72.286.301-.146.57-.31.573-.707 0-.141.12-.207.257-.213.25-.01.498-.018.747-.021.313-.005.465-.015.479.386.005.145.049.295.104.431.185.453.643.599 1.033.326.357-.25.618-.56.69-1.02.051-.332.117-.364.432-.407.32-.044.64-.095.961-.13a.193.193 0 01.22.157c.045.194.081.39.133.581.032.12.074.238.132.346.127.237.33.372.6.385.282.013.482-.146.594-.379.096-.197.142-.421.188-.638.031-.145.021-.298.037-.446a.209.209 0 01.19-.196c.147-.02.297-.018.445-.032.547-.052.566-.041.64.5.024.173.017.35.04.522.04.295.268.486.564.49.51.006.979-.37 1.07-.867.023-.122.015-.249.027-.372.016-.155.103-.253.229-.233.318.05.636.108.95.18.053.012.112.102.124.166.03.145.021.298.047.444a.8.8 0 00.711.664c.305.036.66-.234.767-.592.041-.142.056-.293.11-.43.02-.05.117-.094.18-.095a.274.274 0 01.186.09.356.356 0 01.074.205c.018.498.03.997.04 1.494.004.176-.087.266-.271.277a5.441 5.441 0 01-.448.012 18 18 0 00-3.196.239c-.244.038-.496.032-.745.039zm10.801 13.76a6.275 6.275 0 00-1.18-3.55c-.576-.81-1.37-1.301-2.321-1.513-1.786-.399-3.453-.04-5.013.881-.17.1-.324.23-.475.36-.901.77-1.432 1.775-1.746 2.893a4.516 4.516 0 00-.14 1.848c.034.245.07.491.108.736a5.84 5.84 0 001.208 2.77 4.03 4.03 0 002.073 1.393c.95.271 1.918.263 2.88.085.815-.15 1.558-.502 2.27-.92 1.03-.604 1.72-1.479 2.082-2.623.197-.626.26-1.262.255-1.832 0-.229.003-.378 0-.527zm-1.637.116c-.014.665-.023 1.106-.126 1.55a2.82 2.82 0 01-1.194 1.74c-1.105.762-2.326 1.097-3.672.942-.79-.09-1.395-.49-1.884-1.09a.782.782 0 01-.14-.261c-.137-.45-.266-.904-.396-1.357-.027-.095-.058-.192-.067-.29-.073-.92-.103-1.836.14-2.741.094-.348.25-.642.526-.878.976-.838 2.082-1.342 3.387-1.348.224 0 .449-.003.672.009.939.051 1.66.468 2.128 1.294.465.821.696 1.7.626 2.43zm-11.158-8.784l.002-.017c.2.01.398.03.596.026.273-.008.48-.165.504-.358.024-.184-.138-.42-.357-.521a.469.469 0 00-.068-.028c-.63-.198-1.274-.204-1.92-.117-.182.025-.305.16-.34.352-.043.239.09.467.327.506.417.066.838.106 1.256.157zm-7.526-.588a1.51 1.51 0 00-.296-.028c-.198-.004-.396-.001-.594-.001-.224 0-.447-.005-.67.003a.95.95 0 00-.29.051.413.413 0 00-.28.32c-.035.184.001.356.158.464.12.083.264.174.4.182.519.027 1.04.039 1.557.02.245-.01.442-.301.425-.534a.575.575 0 00-.41-.477zm6.353 3.548c.237.07.48.117.698.169.374-.071.72-.12 1.056-.207.237-.06.395-.305.374-.5-.025-.229-.264-.434-.524-.45a.455.455 0 00-.075-.001c-.445.045-.89.088-1.334.139-.072.008-.141.048-.207.081a.386.386 0 00-.237.35c-.006.192.084.37.249.42zm-3.995-2.7c.44-.042.88-.082 1.318-.138a.994.994 0 00.34-.13c.187-.103.218-.439.049-.576a.74.74 0 00-.324-.159c-.193-.033-.392-.026-.513-.032-.272.017-.47.018-.665.045a2.66 2.66 0 00-.5.12c-.215.072-.31.234-.296.454a.442.442 0 00.372.4.82.82 0 00.219.016zm5.91 4.672a.727.727 0 00-.073-.006c-.497-.015-.98.089-1.466.175-.023.004-.045.017-.068.027a.435.435 0 00-.26.481c.027.17.168.314.347.337.146.017.294.017.595.034.241-.041.632-.093 1.015-.178.235-.051.435-.318.402-.473-.038-.18-.267-.365-.491-.397zM3.55 17.122c.03.14.156.27.308.277.27.013.54.004.811.004l.001.022c.344-.02.69-.027 1.03-.066.197-.023.37-.24.372-.409.003-.167-.166-.367-.359-.422-.047-.014-.096-.03-.144-.03-.443 0-.888-.016-1.328.019-.184.014-.371.122-.537.22-.132.077-.19.223-.154.385zm.205-2.764c.547.226 1.104.265 1.662.035a.672.672 0 00.187-.119c.138-.12.224-.267.175-.46a.426.426 0 00-.378-.31c-.173-.01-.347-.002-.648-.002-.243.038-.61.085-.975.155-.152.029-.233.175-.234.338 0 .163.062.302.21.364zm12.851-.56c.335.083.678.136 1.017.202l.008-.06c.199 0 .4.018.596-.004.211-.025.406-.265.416-.47.01-.2-.173-.434-.386-.497-.023-.007-.047-.016-.072-.018-.474-.046-.945-.035-1.396.139a.884.884 0 00-.296.215c-.145.149-.082.446.113.493zm1.077-2.831a.928.928 0 00.594-.275.386.386 0 00.101-.409.291.291 0 00-.269-.22c-.27-.012-.542-.004-.813-.004l-.001-.013c-.295.022-.593.026-.884.073-.144.023-.256.145-.288.307-.034.173.036.374.177.455.084.048.181.1.273.101.37.007.741.005 1.11-.015zm-9.634 3.268c.287.071.582.112.702.133.479.025.776-.011 1.028-.185a.495.495 0 00.177-.304c.021-.132-.094-.229-.213-.27a1.384 1.384 0 00-.429-.098c-.42-.006-.842.008-1.263.018a.428.428 0 00-.213.047c-.078.051-.174.126-.19.206-.017.08.032.198.093.261a.684.684 0 00.308.192zm1.545 2.997c.185-.049.365-.135.533-.23.13-.074.144-.284.044-.39-.067-.07-.136-.164-.22-.189a3.06 3.06 0 00-1.675-.005c-.247.066-.301.44-.1.612a.848.848 0 00.384.194c.192.033.394.009.59.009v.007c.15 0 .305.028.444-.008zm13.048 2.974a1.982 1.982 0 00-.51-.082c-.321-.016-.645-.009-.967-.016-.387-.01-.388-.064-.324-.378.094-.46.15-.93.203-1.396.03-.27.032-.546.034-.818.002-.21-.063-.418-.265-.497-.268-.106-.525-.304-.843-.209a.326.326 0 00-.18.123c-.085.148-.183.302-.21.465-.04.243-.024.494-.03.742-.013.472-.016.944-.04 1.415-.018.37-.077.74-.094 1.11-.025.537.223.836.76.91.54.073 1.083.121 1.624.18l.004-.037c.223 0 .448.018.67-.003.4-.04.666-.295.705-.647.048-.433-.128-.73-.537-.862z" fill="#fff"/></g><defs><clipPath id="clip0"><path fill="#fff" d="M0 0h26v26H0z"/></clipPath></defs></svg>