<svg width="13" height="13" fill="none" xmlns="http://www.w3.org/2000/svg"><g clip-path="url(#clip0)"><path opacity=".15" d="M3.575 12.594c1.346 0 2.437-.182 2.437-.406 0-.225-1.09-.407-2.437-.407-1.346 0-2.438.182-2.438.406 0 .225 1.092.407 2.438.407zm5.687 0c1.347 0 2.438-.182 2.438-.406 0-.225-1.091-.407-2.438-.407-1.346 0-2.437.182-2.437.406 0 .225 1.091.407 2.437.407z" fill="#45413C"/><path d="M3.304 8.288c.027 1.056-.406 2.735-.406 2.735a.204.204 0 01-.19.135c-.704-.108-1.273-.054-1.435.136-.027.027-.027.081.027.108.135.109.623.46 1.625.677 1.002.217 1.598.109 1.76.054.055 0 .082-.054.055-.108-.055-.217-.57-.514-1.246-.704-.082-.027-.136-.108-.109-.19 0 0 .271-1.706.759-2.654l-.84-.19z" fill="#00B8F0" stroke="#45413C" stroke-miterlimit="10" stroke-linecap="round" stroke-linejoin="round"/><path d="M6.04 7.015C5.823 8.07 4.712 8.938 3.656 8.694 2.6 8.477 1.95 7.258 2.194 6.175L3.792.46l3.195.678-.947 5.877z" fill="#00B8F0"/><path d="M6.5 4.09l.46-2.925L3.765.488 2.167 6.175a2.379 2.379 0 00-.027.758c1.679-.595 3.222-1.57 4.36-2.843z" fill="#4ACFFF"/><path d="M6.04 7.015C5.823 8.07 4.712 8.938 3.656 8.694 2.6 8.477 1.95 7.258 2.194 6.175L3.792.46l3.195.678-.947 5.877z" stroke="#45413C" stroke-miterlimit="10" stroke-linecap="round" stroke-linejoin="round"/><path d="M6.937 1.153C6.978.963 6.3.655 5.423.466c-.877-.19-1.622-.19-1.663 0-.04.19.637.498 1.514.688.877.19 1.622.19 1.663 0z" fill="#00B8F0" stroke="#45413C" stroke-miterlimit="10" stroke-linecap="round" stroke-linejoin="round"/><path d="M3.115 5.065s.27-.38.758-.271c.596.135.84.623.84.623l-1.598-.352z" fill="#FFE500"/><path d="M5.66 6.77c-.19.84-1.083 1.707-1.895 1.518-.84-.19-1.3-1.328-1.11-2.167l.378-1.327s.109.298.704.406c.596.135.867-.352 1.463-.217.596.136.704.407.704.407L5.66 6.77z" fill="#FFE500"/><path d="M5.47 5.092c-.08-.027-.189-.082-.297-.109-.596-.135-.867.352-1.463.217-.595-.135-.704-.406-.704-.406L2.627 6.12a1.874 1.874 0 00-.027.677 10.886 10.886 0 002.87-1.706z" fill="#FFF48C"/><path d="M4.839 2.024a.352.352 0 10-.688-.149.352.352 0 00.688.15zm-.789.368a.162.162 0 10-.317-.069.162.162 0 00.318.069z" fill="#E5F8FF"/><path d="M8.937 8.45c.488.948.786 2.654.786 2.654.027.081-.027.163-.108.19-.678.216-1.165.487-1.246.704 0 .054.027.081.054.108.19.054.758.136 1.76-.081 1.002-.217 1.49-.569 1.625-.677.027-.027.055-.081.027-.109-.162-.189-.73-.216-1.435-.108-.081.027-.162-.054-.19-.135 0 0-.46-1.68-.433-2.736l-.84.19z" fill="#00B8F0" stroke="#45413C" stroke-miterlimit="10" stroke-linecap="round" stroke-linejoin="round"/><path d="M10.887 6.148c.244 1.056-.379 2.275-1.462 2.519-1.056.243-2.167-.596-2.41-1.652l-.948-5.85L9.235.433l1.652 5.715z" fill="#00B8F0"/><path d="M10.075 3.304L9.262.46l-3.195.705.975 5.85c.054.243.162.487.298.704 1.245-1.246 2.247-2.79 2.735-4.415z" fill="#4ACFFF"/><path d="M10.887 6.148c.244 1.056-.379 2.275-1.462 2.519-1.056.243-2.167-.596-2.41-1.652l-.948-5.85L9.235.433l1.652 5.715z" stroke="#45413C" stroke-miterlimit="10" stroke-linecap="round" stroke-linejoin="round"/><path d="M7.742 1.155C8.617.957 9.292.642 9.249.453 9.206.263 8.46.27 7.586.469c-.875.198-1.55.512-1.507.702.043.19.787.183 1.663-.016z" fill="#00B8F0" stroke="#45413C" stroke-miterlimit="10" stroke-linecap="round" stroke-linejoin="round"/><path d="M7.42 5.606s.082-.46.57-.568a1.2 1.2 0 011.002.216l-1.571.352z" fill="#FFE500"/><path d="M10.427 6.065c.19.84-.244 2.005-1.083 2.194-.84.19-1.734-.677-1.923-1.49l-.217-1.354s.217.217.813.082c.595-.136.65-.677 1.218-.813.596-.135.813.081.813.081l.38 1.3z" fill="#FFE500"/><path d="M9.56 4.631c-.08 0-.19.027-.325.055-.595.135-.65.677-1.218.812-.596.135-.813-.081-.813-.081l.217 1.354c.054.217.135.406.27.623.759-.84 1.409-1.76 1.87-2.763z" fill="#FFF48C"/><path d="M7.442 2.536a.352.352 0 10-.155-.687.352.352 0 00.155.687zm-.446.442a.163.163 0 10-.072-.317.163.163 0 00.072.317z" fill="#E5F8FF"/></g><defs><clipPath id="clip0"><path fill="#fff" d="M0 0h13v13H0z"/></clipPath></defs></svg>