<svg width="20" height="20" fill="none" xmlns="http://www.w3.org/2000/svg"><rect width="20" height="20" rx="10" fill="#C4C4C4"/><rect width="20" height="20" rx="10" fill="url(#paint0_linear)"/><path d="M8.86 11.71c0-.41.122-.803.365-1.176.252-.373.523-.672.812-.896.29-.233.555-.504.798-.812.252-.308.378-.616.378-.924 0-.327-.112-.579-.336-.756-.224-.177-.537-.266-.938-.266-.784 0-1.34.415-1.666 1.246L6.62 7.174c.28-.69.723-1.223 1.33-1.596a3.822 3.822 0 012.058-.574c.85 0 1.582.247 2.198.742.625.485.938 1.157.938 2.016 0 .392-.084.756-.252 1.092a3.23 3.23 0 01-.588.868 16.05 16.05 0 01-.686.672c-.224.205-.42.42-.588.644-.159.224-.238.448-.238.672H8.86zm1.807 3.122c-.233.233-.513.35-.84.35-.327 0-.607-.117-.84-.35a1.146 1.146 0 01-.35-.84c0-.327.117-.607.35-.84.233-.233.513-.35.84-.35.327 0 .607.117.84.35.233.233.35.513.35.84 0 .327-.117.607-.35.84z" fill="#fff"/><defs><linearGradient id="paint0_linear" x1="0" y1="10" x2="20" y2="10" gradientUnits="userSpaceOnUse"><stop stop-color="#24B392"/><stop offset="1" stop-color="#009774"/></linearGradient></defs></svg>