<svg width="27" height="34" fill="none" xmlns="http://www.w3.org/2000/svg"><path fill-rule="evenodd" clip-rule="evenodd" d="M12.732.306c-.679 3.346-1.699 4.33-3.36 3.243a1.95 1.95 0 00-.256-.152c-.062 0 .197.53.446.915.554.854.548 1.164-.016.871l-.202-.105.112.152c.95 1.294-.366 2.654-1.611 1.664-.247-.196-.27-.193-.154.02.089.163.383.438.935.874.563.443.56.576-.012.501l-.208-.027.367.382c1.337 1.387 1.492 2.78.35 3.135-.658.205-1.704-.322-2.278-1.148l-.178-.256v.187c0 .338-.047.37-.214.147-.187-.25-.567-.525-1.176-.851-.272-.146-.55-.341-.665-.467l-.196-.216-.03.355c-.134 1.538-1.402 1.757-3.823.66L0 9.935l.35.347c1.663 1.654 1.804 2.783.433 3.449l-.373.18.428.09c1.065.221 2.22 1.08 2.54 1.884.03.076-.315.238-.507.238-.31 0 .187.346.75.522.383.12.419.156.253.256-.094.058-.065.074.277.155 1.703.402 1.392 2.228-.396 2.328l-.429.024.155.12c.185.143.16.17-.398.448-.472.235-.694.297-1.184.333l-.423.031.342.187c.422.23.95.39 1.43.433.382.035.409.06.283.274-.117.2-.108.2.409.07 1.574-.402 2.23-.114 1.893.83l-.093.26.334-.221c.337-.224.819-.393 1.295-.454l.254-.032-.083.154c-.101.19-.101.22-.003.449l.08.184.258-.234c1.058-.96 1.951-.907 1.828.108-.077.631-.596 1.434-1.417 2.189l-.485.446.58-.299c3.165-1.628 4.105-1.857 3.903-.948l-.029.13.083-.113c.046-.061.234-.297.417-.522.184-.226.35-.483.37-.57.046-.204.142-.128.279.222l.093.237.066-.41c.082-.503.32-1.177.591-1.668.112-.204.195-.37.183-.37-.063 0-.526.704-.716 1.087l-.218.441-.131-.15c-.173-.2-.207-.192-.248.06-.06.36-.559 1.063-.559.787 0-.325-.709-.211-1.906.306l-.621.267c-.05.02-.03-.046.058-.195 1.033-1.73-.155-2.897-1.743-1.712-.374.279-.431.27-.313-.05l.085-.228h-.323a2.81 2.81 0 00-1.149.267l-.28.124-.006-.224c-.015-.642-.792-.844-2.075-.539-.13.03-.13.03-.04-.103a.91.91 0 00.09-.153c0-.01-.278-.016-.618-.014-.903.005-1.053-.05-.54-.197a3.56 3.56 0 001.02-.453l.152-.104-.119-.086c-.116-.086-.115-.087.152-.118 1.828-.21 1.93-2.222.142-2.816-.097-.033-.097-.037.014-.112.164-.111.141-.211-.057-.253a4.372 4.372 0 01-.453-.137l-.281-.101.162-.096c.564-.333-.334-1.742-1.538-2.416l-.252-.141.184-.208c.364-.412.355-.991-.024-1.67-.19-.34-.204-.323.212-.225 1.28.3 2.104-.09 2.297-1.088.099-.51 1.34.261 1.789 1.111.217.41.287.43.288.079v-.194l.35.26c2.665 1.98 4.532-.303 2.284-2.794l-.268-.297.148-.052c.393-.139.393-.142.004-.524-.43-.422-.43-.402-.04-.436.831-.073 1.203-.706.95-1.617-.07-.252-.053-.291.096-.214.095.05.482.08.482.04 0-.084-.194-.617-.292-.8-.124-.233-.215-.513-.168-.513.014 0 .111.034.215.076.769.312 1.517-.235 2.181-1.594.13-.265.243-.475.252-.466.01.009.157.223.328.476.874 1.29 1.748 1.671 2.816 1.23.07-.03.094.006.125.185.052.304.169.508.58 1.013.195.239.392.508.436.6.082.165.221.154.221-.019 0-.132.097-.07.132.084.125.55.815.727 1.589.405a3.27 3.27 0 01.255-.1c.046 0-.1.47-.221.716-.162.327-.69.88-1.163 1.217-.43.306-.35.533.153.435.19-.037.189-.011-.01.27-1.315 1.853.469 3.62 2.159 2.14.12-.106.226-.183.235-.172.008.01.07.107.136.214s.135.187.154.179c.12-.055.595-.405.77-.57.129-.121.217-.172.23-.133.317.92 1.773.903 3.602-.041.02-.01-.042.161-.137.38-.55 1.265-.442 2.066.358 2.662.19.142.16.225-.157.42-.227.139-.455.202-1.299.36-.194.037-.303.082-.303.128 0 .147.122.32.276.39l.16.074-.225.173c-.492.378-.508.79-.048 1.236.565.548-.309.64-1.422.15-.33-.145-.615-.25-.633-.233-.075.073-.03.526.063.624.093.1.089.103-.277.19-2.62.623-2.249 2.73.483 2.734l.511.001-.088.15c-.111.187-.066.236.151.163.319-.108.882-.067 1.674.122.414.098.821.178.907.178.401 0-.044.257-.873.503-.29.086-.776.229-1.08.317-.903.26-1.145.442-1.092.82.027.195.026.195-.14.167a6.543 6.543 0 01-1.527-.489c-.247-.12-.273-.101-.178.12l.074.172-.4.004c-.851.007-1.204.562-.933 1.467.112.375.118.362-.158.325-.353-.047-.736-.27-1.036-.605l-.263-.293-.204.24c-.113.132-.205.271-.205.31 0 .037-.144-.072-.32-.243a7.546 7.546 0 00-.646-.55c-.936-.688-1.336-1.152-1.615-1.877-.23-.597.282-.609.938-.022.216.194.527.382 1.074.65.432.211.856.457.967.562.126.117.177.145.139.076-.105-.191-.357-.358-1.075-.71-.849-.416-1.41-.79-1.185-.79.007 0 .404.079.881.176 1.466.297 2.295.399 3.393.417.886.014 1.009.027 1.107.112.155.135.362.266.42.266.027 0-.05-.07-.17-.154-.27-.19-.273-.242-.02-.282.581-.091 1.307-.268 1.266-.308-.01-.01-.256.03-.544.092-.967.204-3.297.142-4.57-.122-.426-.089-.283-.203.532-.425.475-.13 1.062-.354 1.062-.406 0-.015-.1.014-.224.065a6.4 6.4 0 01-.698.209 4.38 4.38 0 00-.815.294c-.33.172-.35.176-.633.123-.603-.114-1.952-.434-1.952-.464 0-.067 1.112-1.224 1.498-1.559l.41-.355.472-.01c.427-.007 1.813-.213 1.763-.262-.01-.01-.266.015-.566.057-.552.078-.974.106-1.31.09l-.185-.01.185-.154c.475-.394 1.582-1.165 2.992-2.081l1.543-1.003.242.268c.236.261.703.57.862.57.044 0-.04-.055-.184-.12-.29-.133-.616-.418-.737-.643l-.077-.146.512-.372c.632-.458 1.372-1.147 1.67-1.555.243-.334.37-.554.177-.307-.236.302-1.131 1.136-1.545 1.44-.493.36-1.514 1.045-1.532 1.026a2.15 2.15 0 01.058-.338 7.99 7.99 0 00.101-.97 83.6 83.6 0 01.053-.979c.04-.616-.064.018-.13.792-.06.709-.156 1.245-.273 1.526-.044.108-.366.343-1.25.915-2.405 1.555-3.819 2.71-4.527 3.698-.107.151-.215.274-.238.275-.024 0-.03-.018-.016-.041.05-.079.299-1.47.403-2.254.117-.872.128-.899.636-1.508a7.626 7.626 0 011.154-1.157c.78-.64 1.196-1.072 1.503-1.556.126-.198.048-.126-.281.263-.147.172-.642.636-1.1 1.03-.824.709-1.174 1.06-1.572 1.58a2.017 2.017 0 01-.212.256c-.005-.006.012-.333.038-.727.068-1.048-.008-2.48-.199-3.773l-.082-.554.208-.307c.115-.169.515-.61.89-.98.374-.37.73-.74.791-.825.165-.229-1.406 1.281-1.687 1.622L15 11.42l-.035-.191a73.722 73.722 0 00-.498-2.275l-.222-.96.132-.19a7.2 7.2 0 01.479-.571c.191-.21.421-.486.51-.614.14-.2.142-.207.016-.053-.288.35-1.146 1.176-1.182 1.138-.05-.053-.302-1.412-.418-2.262-.117-.857-.132-.613-.024.397.127 1.187.32 2.267.655 3.655.164.684.187.652-.354.489a94.84 94.84 0 00-1.199-.35c-1.12-.32-1.863-.687-2.477-1.223l-.263-.23.237.246c.567.588 1.232.922 2.714 1.363.493.146 1.04.329 1.217.406l.32.139.09.435c.246 1.2.455 2.812.455 3.503v.279l-.203-.178c-.307-.27-.76-.554-1.568-.986-1.309-.7-1.82-1.06-2.158-1.515-.275-.373-.317-.41-.19-.164.276.536.92 1.051 2.203 1.763 1.008.56 1.396.808 1.692 1.085l.224.209v.59c0 1.144-.385 4.579-.53 4.725-.094.095-2.06-.885-2.65-1.322l-.193-.143v-.723c0-1.148-.144-2.003-.478-2.843-.203-.51-.253-.514-.07-.006.36 1.004.603 3.431.343 3.431-.16 0-1.31-.977-2.981-2.536a59.756 59.756 0 00-1.634-1.482c-.578-.475-.609-.51-.61-.694-.001-.319-.384-1.627-.455-1.558-.012.012.023.134.079.271.144.354.282.994.262 1.212l-.017.186-.44-.286c-.427-.278-1.509-.838-1.615-.836-.03 0 .172.118.448.262.961.5 1.713 1.056 2.918 2.155l.679.618-.6.087c-.33.048-.884.145-1.231.216-.348.07-.692.14-.765.151-.1.017-.088.024.053.029.101.003.54-.063.975-.147.515-.099.953-.152 1.256-.152h.466l.8.728c1.952 1.78 3.403 2.76 5.055 3.413.536.212.107.288-1.354.24-1.645-.054-1.483.01-3.22-1.272-.645-.476-1.267-.848-1.325-.792-.015.015.075.077.201.14.686.338 2.578 1.77 2.258 1.71-2.4-.457-4.417-.502-5.465-.122-.392.142-.333.156.142.033.446-.116 1.886-.183 2.512-.118l.36.037-.342.169a2.245 2.245 0 00-.527.362l-.184.194.206-.17c.649-.532.922-.571 2.35-.338 1.411.231 2.143.321 2.965.365.37.02.672.054.672.077 0 .118-.402.452-1.009.84-.373.239-.678.448-.678.464 0 .017.053-.002.119-.042.065-.04.332-.198.593-.35a5.27 5.27 0 00.843-.633c.337-.325 1-.587 1.172-.464.054.038-.655 3.225-1.073 4.822-1.163 4.446-2.402 7.716-3.251 8.581-.193.197-.193.197.205.058.431-.15.986-.158 1.234-.016l.184.106.006-.566c.008-.769.19-1.574 1.155-5.088.907-3.308 1.33-5.066 1.584-6.568.19-1.13.19-1.13.241-.766.088.622.264.859 1.557 2.097.647.62 1.176 1.096 1.176 1.059 0-.038.095-.158.21-.269.117-.11.213-.23.214-.266 0-.036.06.053.133.197.292.585.712.8 1.683.86.29.019.586.047.659.065.13.03.128.027-.04-.159-.986-1.09-.354-2.144 1.036-1.724l.32.096-.158-.185c-.226-.265-.217-.267.44-.053.634.205 1.122.301 1.512.297l.237-.002-.13-.087c-.809-.537-.675-.722.933-1.292 1.334-.473 1.987-.835 2.28-1.264.233-.34.224-.35-.303-.327-.52.023-.742-.002-2.134-.248-1.04-.184-1.053-.19-.878-.359.098-.096.1-.104.013-.079-.968.281-2.031.139-2.468-.33-.613-.658.04-1.197 1.616-1.336.638-.056.663-.062.514-.132-.159-.075-.471-.384-.471-.467 0-.025.148.013.33.086.604.24.92.223 1.982-.109.504-.157.966-.287 1.028-.29.062-.002-.09-.048-.336-.102-1.52-.33-1.756-.933-.584-1.492l.343-.164-.286-.04c-.615-.086-.616-.181-.003-.376.763-.242 1.803-.928 1.528-1.008-1.341-.389-1.347-1.35-.025-4.297l.09-.2-.123.077c-2.851 1.78-4.45 1.908-4.467.356l-.004-.376-.231.3a7.977 7.977 0 01-.657.705c-.46.44-.514.442-.473.027l.02-.206-.239.247c-.718.743-1.433 1.041-1.843.77-.733-.484-.414-1.738.652-2.56.225-.174.244-.202.122-.173-.556.132-1.237.047-.771-.097.38-.117.674-.57 1.177-1.812.165-.408.367-.862.45-1.01.082-.147.14-.268.13-.268-.01 0-.2.128-.425.283-1.59 1.107-2.417.988-2.264-.328l.034-.287-.147.252c-.199.341-.234.339-.505-.032-.41-.562-.531-.84-.535-1.23-.002-.286-.016-.34-.082-.313-1.678.684-2.628-.036-3.58-2.714L12.793 0l-.062.306z" fill="#F39424"/></svg>