<svg width="45" height="45" fill="none" xmlns="http://www.w3.org/2000/svg"><rect width="45" height="45" rx="22.5" fill="url(#paint0_radial)"/><path d="M25.126 15.656c.462.183.79.515 1.082 1.001l.097.168.358.686.011.02.011.016.03.042a.94.94 0 00.617.285 3.085 3.085 0 013.08 2.925l.005.159v4.588a3.935 3.935 0 01-3.764 3.93l-.17.004h-7.965a3.935 3.935 0 01-3.93-3.764l-.004-.17v-4.588a3.085 3.085 0 013.085-3.084c.18 0 .453-.108.616-.285l.006-.007.007-.01.04-.062.357-.685c.319-.578.665-.965 1.178-1.17.942-.374 4.313-.374 5.253 0zm-4.814 1.103c-.175.07-.334.231-.503.511l-.073.127-.305.59-.075.135a1.646 1.646 0 01-.197.27 2.137 2.137 0 01-1.353.663l-.137.006-.13.005c-.945.063-1.7.818-1.764 1.762l-.004.13v4.588a2.747 2.747 0 002.596 2.743l.151.004h7.964a2.748 2.748 0 002.743-2.597l.004-.15v-4.588c0-1.004-.78-1.826-1.767-1.892l-.13-.005-.138-.006a2.134 2.134 0 01-1.354-.663 1.646 1.646 0 01-.195-.268l-.014-.025-.018-.032-.092-.173-.257-.496c-.173-.315-.331-.507-.502-.604l-.075-.035-.094-.032c-.815-.23-3.649-.22-4.28.032zm2.188 3.523a3.11 3.11 0 110 6.22 3.11 3.11 0 010-6.22zm0 1.188a1.923 1.923 0 100 3.845 1.923 1.923 0 000-3.845zm4.358-1.74a.792.792 0 01.092 1.577l-.092.006a.792.792 0 01-.1-1.578l.1-.006z" fill="#fff"/><defs><radialGradient id="paint0_radial" cx="0" cy="0" r="1" gradientUnits="userSpaceOnUse" gradientTransform="translate(45.905 .914) scale(103.918)"><stop stop-color="#F9ED32"/><stop offset="0" stop-color="#D22A8A"/><stop offset="0" stop-color="#EE2A7B"/><stop offset=".063" stop-color="#8B2AB2"/><stop offset=".479" stop-color="#3D46C0"/><stop offset=".984" stop-color="#002AFF"/></radialGradient></defs></svg>