<svg width="27" height="24" fill="none" xmlns="http://www.w3.org/2000/svg"><path fill-rule="evenodd" clip-rule="evenodd" d="M13.11.16l-.24.378c-.076.12-.139.232-.139.25 0 .019-.087.17-.194.337a7.2 7.2 0 00-.282.478 1.413 1.413 0 01-.118.204c-.037.036-.148.226-.358.612-.087.16-.238.423-.335.583-.097.16-.195.33-.218.379-.023.048-.098.18-.168.291-.07.113-.208.349-.306.525a10.81 10.81 0 01-.274.467c-.052.08-.123.196-.158.258-.116.206-.192.16-.444-.27a101.41 101.41 0 00-.531-.895c-.382-.633-.394-.684-.229-.945a9.58 9.58 0 00.257-.434c.066-.12.273-.477.46-.796.385-.65.416-.818.186-.995-.223-.172-.675-.058-.675.17 0 .028-.174.329-.387.669-.212.34-.386.644-.386.675 0 .228-.247-.078-.72-.891C7.236.153 7.2.11 6.91.13c-.469.033-.49.34-.072 1.05l.24.407c.06.105.207.347.326.54.352.57.373.553-.755.553-1.096 0-1.168.026-1.168.424 0 .369.09.393 1.473.393 1.281 0 1.258-.005 1.434.293 1.266 2.14 1.56 1.863-1.976 1.863-3.265 0-3.19-.009-3.19.38 0 .196.04.28.4.877.098.162.245.41.326.553l.283.493c.073.128.154.26.18.291.026.032.1.15.164.263.064.112.298.505.52.874.22.369.448.749.504.845l.29.484c.302.5.348.478-.99.478H3.723l-.651-1.06c-.508-.825-.687-1.07-.813-1.11-.36-.118-.68.249-.507.58.133.255.4.712.65 1.112.305.49.33.478-.989.478-1.295 0-1.402.03-1.412.395-.013.435.119.48 1.416.48 1.329 0 1.285-.025.942.52a6.379 6.379 0 00-.266.444c0 .012-.08.155-.178.318-.224.373-.23.592-.022.753.377.29.528.14 1.402-1.394.083-.145.2-.348.262-.452l.111-.189h1.204c1.362 0 1.339-.01 1.025.437a1.86 1.86 0 00-.179.284c0 .033-.687 1.204-1.113 1.896a36.695 36.695 0 00-.603 1.011L3.33 16.84c-.131.224-.108.413.072.59.114.111.21.115 3.089.115 1.634 0 2.971.018 2.971.04 0 .04-.613 1.089-.87 1.489a1.36 1.36 0 00-.14.252c0 .173-.193.2-1.418.2H5.787l-.128.16c-.093.115-.118.207-.093.33.065.32.087.327 1.142.327 1.26 0 1.235-.15.24 1.515-.467.783-.508 1.057-.183 1.228.289.152.47.012.839-.645.998-1.78.89-1.714 1.405-.851.615 1.03.768 1.148 1.096.849.243-.222.196-.346-.683-1.823-.367-.615-.422-.74-.33-.74.024 0 .082-.083.128-.185s.249-.452.45-.779c.203-.327.385-.637.405-.69.09-.23.248-.09.577.517.183.336.34.611.765 1.332.167.283.304.528.304.544 0 .017.05.1.11.185.06.085.19.3.289.476.098.176.33.58.514.896.184.317.335.588.335.603 0 .155.27.366.469.366.248 0 .37-.105.582-.496.069-.128.186-.338.26-.466.075-.128.287-.495.471-.816a268.222 268.222 0 011.008-1.745c.063-.11.184-.306.267-.436.084-.13.152-.254.152-.276 0-.022.123-.235.275-.473.306-.481.309-.481.571-.014.212.379.349.611.665 1.134l.28.463-.107.23a3.14 3.14 0 01-.271.455 1.5 1.5 0 00-.165.254c0 .017-.1.195-.223.394-.485.789-.53.901-.431 1.072.284.491.57.326 1.143-.662.547-.944.518-.936.934-.237.176.297.41.685.519.862.108.177.197.342.197.367 0 .205.407.396.64.3.311-.129.274-.414-.142-1.088a24.42 24.42 0 01-.51-.861 3.92 3.92 0 00-.236-.393c-.178-.21-.025-.25.95-.25 1.038 0 1.14-.033 1.14-.369 0-.354-.118-.388-1.381-.393-1.423-.005-1.35.032-1.828-.9a1.86 1.86 0 00-.136-.232c-.864-1.066-.908-1.045 2.289-1.078 2.717-.029 2.799-.033 2.863-.146a5.28 5.28 0 01.17-.271c.114-.171.136-.341.044-.341-.033 0-.06-.023-.06-.05 0-.05-.256-.514-.681-1.233l-.345-.583a13.958 13.958 0 01-.245-.437 2.364 2.364 0 00-.155-.262 1.27 1.27 0 01-.11-.168l-.2-.35c-.393-.688-.676-1.164-.775-1.306-.227-.322-.172-.337 1.177-.32l1.223.016.1.175a.69.69 0 00.145.194.082.082 0 01.045.069c0 .027.138.268.306.534.169.267.346.564.395.66.16.316.312.438.55.438.416 0 .47-.398.122-.895-.102-.145-.185-.291-.185-.325a.061.061 0 00-.06-.063c-.032 0-.059-.052-.059-.116 0-.065-.026-.117-.059-.117s-.06-.029-.06-.064-.057-.143-.127-.239c-.187-.259-.108-.278 1.148-.279 1.236-.001 1.266-.006 1.389-.238.24-.458.083-.52-1.297-.52-1.608 0-1.563.057-.852-1.108.413-.676.456-.952.173-1.097-.307-.158-.455-.039-.882.709l-.523.912a17.86 17.86 0 00-.2.362c-.115.22-.182.23-1.383.214-1.285-.018-1.269-.012-1.023-.4.105-.165.19-.31.19-.324 0-.013.095-.17.211-.348.116-.178.295-.474.396-.657a8.31 8.31 0 01.354-.577c.092-.134.168-.26.168-.28 0-.021.08-.152.179-.292a1.93 1.93 0 00.178-.283c0-.015.124-.234.276-.485.287-.475.412-.686.621-1.054a2.15 2.15 0 01.178-.274c.11-.113.056-.371-.102-.494-.154-.118-.213-.12-3.057-.12-3.083 0-3.062.001-2.852-.287a.94.94 0 00.122-.199c0-.017.134-.257.297-.535.164-.277.298-.516.298-.53 0-.014.07-.13.156-.258l.156-.232h1.26c1.405 0 1.518-.03 1.518-.41 0-.364-.125-.406-1.218-.406h-.981v-.146c0-.08.02-.145.045-.145.025 0 .083-.086.13-.19.047-.104.2-.364.341-.578a3.94 3.94 0 00.257-.42c0-.018.08-.165.178-.328.285-.474.2-.878-.183-.873-.208.003-.319.107-.534.497-.105.19-.223.386-.262.434-.04.048-.187.297-.327.552-.448.812-.464.808-1.043-.29-.235-.446-.416-.64-.616-.66-.386-.036-.54.31-.312.703l.49.833c.617 1.043.598.952.29 1.427-.091.141-.418.703-.61 1.05-.32.575-.381.589-.633.145l-.64-1.107a235.56 235.56 0 01-1.177-2.04 111.909 111.909 0 00-.749-1.298C13.721.028 13.683 0 13.438 0c-.186 0-.248.03-.329.16zm.677 1.633a49 49 0 00.39.684c.076.129.219.378.318.554.099.176.264.46.367.63.102.17.187.32.187.336 0 .015.062.125.138.245.133.207.288.478.702 1.223.102.184.209.36.237.39.148.16.07.38-.418 1.167a4.922 4.922 0 00-.243.417c0 .014-.069.13-.152.26a14.54 14.54 0 00-.523.899c-.07.128-.141.246-.157.262-.034.033-.12.18-.377.642-.806 1.448-.714 1.46-1.661-.234a8.19 8.19 0 00-.279-.466c-.055-.08-.202-.33-.328-.554a40.53 40.53 0 00-.575-.977 9.068 9.068 0 01-.346-.597c0-.015-.08-.155-.178-.311-.227-.361-.227-.351.08-.878.143-.243.326-.56.408-.705.082-.144.203-.354.27-.466.337-.572.82-1.403.964-1.662.09-.16.233-.41.319-.554.085-.144.214-.373.286-.51.184-.35.278-.317.57.205zm8.75 4.76a.209.209 0 01-.054.124c-.03.03-.108.15-.173.266-.226.4-.279.49-.308.518-.017.016-.07.108-.118.204a2.94 2.94 0 01-.217.35 4.89 4.89 0 00-.254.394c-.277.485-.369.64-.463.78-.054.082-.14.222-.192.312-.335.586-.858 1.45-.946 1.563l-.104.135-2.602.019c-2.54.018-2.83.01-2.83-.086 0-.039.296-.55 1.13-1.951.278-.466.807-1.375.967-1.661.099-.177.229-.39.29-.476a.71.71 0 00.109-.195c0-.022.055-.116.123-.209l.122-.168 2.656-.016c2.79-.016 2.864-.013 2.864.097zm-12.225.5c.19.305.361.593.382.642.021.048.287.5.592 1.007.304.505.553.945.553.976 0 .031.021.057.046.057.025 0 .091.098.148.218.12.255.367.677.527.898.257.357.378.341-2.588.341-2.603 0-2.887-.012-2.887-.12 0-.028-.147-.289-.327-.58-.18-.29-.326-.553-.326-.584a.058.058 0 00-.06-.057.059.059 0 01-.06-.057c0-.032-.13-.274-.29-.54-1.712-2.843-1.57-2.593-1.528-2.701.028-.071.437-.082 2.753-.069l2.72.016.345.553zm2.338 5.03c.025.026.01.105-.035.175-.045.071-.162.273-.26.45a5.964 5.964 0 01-.22.378 4.178 4.178 0 00-.17.277c-.283.493-.363.63-.498.842a12.79 12.79 0 00-.322.543c-.273.488-.402.706-.667 1.135-.134.216-.243.413-.243.439 0 .025-.076.125-.168.222l-.168.177-2.7-.032c-3.197-.037-2.843.087-2.298-.805.06-.096.123-.22.143-.276.019-.056.058-.102.087-.102a.054.054 0 00.053-.055c0-.03.23-.444.512-.918.649-1.092.74-1.245.82-1.388l.353-.597.285-.48 2.09-.017c2.958-.023 3.352-.02 3.405.033zm7.064-.03a.734.734 0 01.139.182l.19.331c.06.106.178.298.262.428.083.13.152.251.152.27 0 .02.08.149.178.289.098.14.178.266.178.282 0 .015.19.351.422.747.232.396.483.826.558.957.27.473.298.52.328.55.082.08.237.41.237.504 0 .104-.108.108-2.683.1l-2.684-.008-.106-.138a3.327 3.327 0 01-.22-.342c-.226-.41-.451-.795-.675-1.157-.125-.204-.228-.394-.228-.423 0-.028-.02-.052-.046-.052-.025 0-.091-.098-.147-.219a6.25 6.25 0 00-.267-.488c-.839-1.378-1.04-1.755-.96-1.805.1-.061 5.287-.07 5.372-.008zm-5.823 1.073a119.024 119.024 0 011.045 1.782c.069.12.146.245.17.277.025.032.112.176.194.32.264.469.387.678.624 1.06.358.578.368.453-.109 1.33a2.887 2.887 0 01-.172.292c-.039.038-.157.241-.371.64a4.804 4.804 0 01-.22.379 4.186 4.186 0 00-.195.322l-.284.495c-.074.128-.202.351-.283.496-.849 1.504-.827 1.49-1.19.816a21.178 21.178 0 00-.31-.554 42.303 42.303 0 01-.316-.554 43.64 43.64 0 00-.422-.728 14.828 14.828 0 01-.331-.583 1.42 1.42 0 00-.12-.204 2.37 2.37 0 01-.155-.263c-.069-.128-.25-.447-.4-.708-.332-.57-.334-.604-.063-1.044.117-.19.287-.477.377-.638.174-.306.23-.402.695-1.186a62.375 62.375 0 00.726-1.248l.244-.418c.472-.817.428-.813.866-.08z" fill="#19A6E2"/></svg>