<svg width="22" height="23" fill="none" xmlns="http://www.w3.org/2000/svg"><path fill-rule="evenodd" clip-rule="evenodd" d="M21.996 10.678c-.068-2.663-.852-5.082-2.377-7.258C18.457 1.765 16.856.763 14.94.33 11.342-.486 7.982.247 4.838 2.13c-.342.206-.652.471-.956.736C2.065 4.44.995 6.494.362 8.777c-.337 1.22-.457 2.498-.282 3.777.068.502.14 1.005.22 1.505.33 2.1 1.123 4 2.433 5.662 1.093 1.387 2.492 2.356 4.177 2.845 1.914.555 3.865.537 5.805.175 1.642-.308 3.139-1.027 4.572-1.88 2.078-1.236 3.467-3.023 4.196-5.361.398-1.279.525-2.58.514-3.744 0-.468.007-.773 0-1.078zm-2.255.327c-.027 1.359-.046 2.26-.254 3.167-.348 1.525-1.445 3.916-2.682 4.781-2.228 1.558-5.732 2.152-8.445 1.835-1.591-.185-3.428-1.919-4.414-3.146a1.605 1.605 0 01-.28-.534c-.277-.92-.537-1.848-.8-2.773-.055-.195-.117-.392-.133-.593-.148-1.879-.209-3.751.281-5.601.188-.712 1.268-2.792 1.824-3.276 1.967-1.712 4.717-2.722 7.346-2.734.452-.002.904-.008 1.354.017 1.892.105 4 2.204 4.942 3.891.937 1.679 1.402 3.473 1.26 4.966zm-4.579 1.143a3.945 3.945 0 00-1.028-.167c-.648-.031-1.301-.017-1.95-.033-.779-.02-1.312-.393-1.184-1.035.189-.941.302-1.898.41-2.853.061-.553.062-1.115.068-1.671.003-.429-.127-.853-.534-1.016-.542-.216-.216-.225-.857-.032-.135.04-.295.136-.362.253-.172.3-.37.616-.423.948-.08.497-.048 1.011-.062 1.518-.024.964-.03 1.928-.078 2.89-.038.759-.057.177-.092.933-.05 1.098.449 1.709 1.532 1.86 1.087.15 2.182.247 3.273.368a1.8 1.8 0 01.007-.075c.45 0 .904.037 1.35-.008.808-.081.529.402.608-.317.096-.884.146-1.29-.678-1.563z" fill="#fff"/></svg>