<svg width="65" height="50" fill="none" xmlns="http://www.w3.org/2000/svg"><path fill-rule="evenodd" clip-rule="evenodd" d="M42.664.206l-1.006.198c-5.423 1.071-7.512 5.64-3.982 8.71a36.53 36.53 0 011.734 1.627l.773.79v10.506l-.756.614c-1.862 1.512-3.819 2.314-6 2.46-1.851.125-3.06 5.67-1.776 8.147 1.768 3.406 15.606 4.761 22.193 2.173 3.566-1.4 3.668-1.573 3.616-6.132-.049-4.25.08-3.976-1.956-4.17-2.271-.215-4.245-1.02-5.934-2.422l-.802-.665v-10.54l.848-.843a68.656 68.656 0 011.743-1.658C55.85 4.897 49.824-1.2 42.664.206zm3.93 2.13c4.518.907 5.514 3.183 2.589 5.915-.81.757-1.688 1.668-1.95 2.024l-.477.647v11.81l.637.681c1.795 1.92 5.453 3.72 7.562 3.72h.386v5.342l-1.25.607c-4.828 2.34-15.115 2.243-19.618-.185l-.93-.502-.037-2.18c-.035-2.035-.021-2.174.201-2.104.131.04.751.285 1.378.543 5.208 2.141 13.414 2.477 13.414.549 0-.87-.137-.902-3.921-.923-3.728-.02-4.725-.159-7.464-1.04-1.23-.394-1.272-.42-.888-.545 1.923-.626 3.97-1.866 5.197-3.149l.772-.806v-5.86c-.001-7 .281-6.198-3.315-9.416-3.091-2.768 2.143-6.247 7.714-5.128zm6.686 7.958l-.354.277v3.244c0 3.842.433 4.742 1.683 3.496l.33-.328v-6.309l-.33-.329c-.402-.4-.86-.418-1.33-.05zm-38.29.603C14.603 11.167.075 40.266.075 40.77c0 .2.137.484.31.647l.31.29h31.75c35.224 0 32.244.072 32.301-.768.032-.466-.066-.697-1.988-4.647-2.37-4.87-2.687-5.236-3.616-4.16-.45.522-.47.46 1.296 4.06.885 1.805 1.61 3.334 1.61 3.396 0 .063-13.34.114-29.645.114s-29.645-.02-29.645-.045c0-.025 3.017-6.102 6.706-13.505l6.706-13.46h20.478l.292-.31c.387-.41.372-.96-.038-1.368l-.329-.328h-10.64c-9.48 0-10.674.023-10.943.211zm44.844 3.154c-1.584.813-4.483 5.065-3.846 5.64.914.824 5.722-3.836 5.246-5.084-.246-.645-.799-.865-1.4-.556zm-40.273 1.676c-.918.177-1.07 1.51-.216 1.897.497.226 17.032.204 17.482-.023.738-.373.698-1.458-.065-1.776-.44-.183-16.288-.273-17.2-.098zm-2.945 5.122c-.595.239-.762 1.081-.322 1.622l.256.316 9.197.037c10.044.04 10.034.041 10.22-.697.135-.534-.044-.987-.474-1.21-.45-.231-18.31-.296-18.877-.068zm41.822.279c-.927.37-.902 1.497.041 1.854.614.233 5.514.18 5.988-.064a.954.954 0 00-.072-1.744c-.541-.226-5.413-.263-5.957-.046zm-44.811 5.775c-.555.28-.785.821-.537 1.264.388.69.47.7 6.1.7 6.117 0 6.385-.062 6.05-1.39-.18-.72-10.33-1.221-11.613-.574zm36.658.766c-.998.4-.598 1.87.51 1.87 1.003 0 1.504-.905.914-1.653-.293-.371-.835-.454-1.424-.217zM1.32 42.512c-1.184.476-1.502 3.01-.41 3.274 1.013.244 63.261-.005 63.538-.255.892-.804-.744-3.39-1.893-2.99-.412.142-.642.463-.642.896v.276H2.758v-.309c0-.306-.438-.894-.665-.894a1.21 1.21 0 01-.297-.058c-.098-.033-.312-.005-.476.06zm.009 4.072C.99 46.819.075 48.69.075 49.143c0 .94-3.203.855 32.328.855 31.612 0 31.792-.002 32.06-.267.698-.697-.555-3.343-1.583-3.343-.54 0-.995.527-.942 1.089l.05.515H2.774l.075-.458c.137-.841-.82-1.439-1.52-.95z" fill="#009774"/></svg>