<svg width="45" height="45" fill="none" xmlns="http://www.w3.org/2000/svg"><rect width="45" height="45" rx="22.5" fill="url(#paint0_radial)"/><path fill-rule="evenodd" clip-rule="evenodd" d="M27.404 18.497a.9.9 0 11-1.8 0 .9.9 0 011.8 0zM22.5 25a2.5 2.5 0 110-5 2.5 2.5 0 010 5zm0-6.351a3.851 3.851 0 100 7.702 3.851 3.851 0 000-7.702zm0-2.298c2.003 0 2.24.008 3.03.044.732.034 1.129.156 1.393.258.35.137.6.299.863.562.262.262.425.512.56.862.103.264.226.661.259 1.392.036.791.044 1.029.044 3.031 0 2.003-.008 2.24-.044 3.03-.033.732-.155 1.13-.258 1.393-.136.35-.299.6-.561.863a2.323 2.323 0 01-.863.561c-.264.103-.661.225-1.392.258-.791.036-1.028.044-3.031.044s-2.24-.008-3.03-.044c-.732-.033-1.13-.155-1.393-.258-.35-.136-.6-.299-.863-.561a2.323 2.323 0 01-.56-.863c-.104-.264-.226-.66-.26-1.392-.035-.791-.043-1.028-.043-3.03 0-2.003.008-2.24.044-3.032.033-.73.155-1.128.258-1.392.136-.35.299-.6.561-.863.263-.262.513-.424.863-.56.264-.103.661-.226 1.392-.259.791-.036 1.028-.044 3.031-.044zm0-1.351c-2.037 0-2.292.009-3.092.045-.799.037-1.344.163-1.82.349a3.677 3.677 0 00-1.33.865 3.677 3.677 0 00-.864 1.328c-.186.477-.312 1.023-.349 1.82-.036.8-.045 1.056-.045 3.093s.009 2.292.045 3.092c.037.799.163 1.344.349 1.82.191.494.448.912.865 1.33a3.69 3.69 0 001.328.864c.477.186 1.023.312 1.82.349.8.036 1.056.045 3.093.045s2.292-.009 3.092-.045c.799-.037 1.344-.163 1.82-.349a3.677 3.677 0 001.33-.865 3.69 3.69 0 00.864-1.328c.186-.477.312-1.023.349-1.82.036-.8.045-1.056.045-3.093s-.009-2.292-.045-3.092c-.037-.799-.163-1.344-.349-1.82a3.677 3.677 0 00-.865-1.33 3.679 3.679 0 00-1.328-.864c-.477-.186-1.023-.312-1.82-.349-.8-.036-1.056-.045-3.093-.045z" fill="#fff"/><defs><radialGradient id="paint0_radial" cx="0" cy="0" r="1" gradientUnits="userSpaceOnUse" gradientTransform="translate(45.905 .914) scale(103.918)"><stop stop-color="#F9ED32"/><stop offset=".115" stop-color="#EE2A7B"/><stop offset=".391" stop-color="#D22A8A"/><stop offset=".688" stop-color="#8B2AB2"/><stop offset=".896" stop-color="#1B2AF0"/><stop offset=".984" stop-color="#002AFF"/></radialGradient></defs></svg>