<svg width="15" height="15" fill="none" xmlns="http://www.w3.org/2000/svg"><path d="M7.5 1.34a2.678 2.678 0 012.679 2.678v1.615c.38.02.636.088.902.23.315.168.566.42.735.735.176.33.238.647.238 1.204v3.146c0 .557-.062.874-.239 1.204-.168.315-.42.567-.734.735-.33.177-.648.238-1.205.238H5.124c-.557 0-.874-.061-1.205-.238a1.777 1.777 0 01-.735-.735c-.176-.33-.238-.647-.238-1.204V7.802c0-.557.062-.873.238-1.204.169-.315.42-.567.735-.735.266-.142.523-.21.902-.23V4.018A2.68 2.68 0 017.5 1.339zm2.376 5.089H5.124c-.478 0-.651.05-.826.143a.974.974 0 00-.405.405c-.093.174-.143.348-.143.825v3.146c0 .478.05.65.143.825.093.175.23.312.405.405.175.094.348.143.826.143h4.752c.478 0 .651-.05.826-.143a.974.974 0 00.405-.405c.093-.174.143-.347.143-.825V7.802c0-.477-.05-.65-.143-.825a.974.974 0 00-.405-.405c-.175-.094-.348-.143-.826-.143zM7.5 8.036a.804.804 0 01.268 1.561v.85a.268.268 0 01-.536 0v-.85A.804.804 0 017.5 8.036zm0-5.893c-1.036 0-1.875.84-1.875 1.875v1.607h3.75V4.018c0-1.036-.84-1.875-1.875-1.875z" fill="#009774"/></svg>