<svg width="49" height="49" fill="none" xmlns="http://www.w3.org/2000/svg"><path fill-rule="evenodd" clip-rule="evenodd" d="M21.4 21.473a.816.816 0 000 1.154l4.9 4.9a.814.814 0 001.156 0 .816.816 0 000-1.155l-4.9-4.9a.816.816 0 00-1.155 0zm-2.111 3.266a.816.816 0 10-1.155 1.155l4.9 4.9a.814.814 0 001.155 0 .816.816 0 000-1.155l-4.9-4.9zm-3.267 3.267a.816.816 0 10-1.154 1.155l4.9 4.9a.815.815 0 001.154 0 .816.816 0 000-1.155l-4.9-4.9zm15.418-1.873l-8.645-8.645L10.883 29.4l8.645 8.645L31.44 26.133zm-8.068-10.377l9.8 9.8c.32.32.32.835 0 1.155L20.106 39.777a.814.814 0 01-1.155 0l-9.8-9.8a.816.816 0 010-1.154l13.067-13.067a.816.816 0 011.154 0zm19.002 14.113a.815.815 0 00-1.117.292l-9.361 15.966c-.676 1.17-2.178 1.573-3.312.92l-1.823-1.182a.816.816 0 10-.888 1.37l1.859 1.205a4.081 4.081 0 005.575-1.491l9.358-15.962a.817.817 0 00-.29-1.117zm6.554-25.786V17.15c0 2.527-.803 4.41-2.689 6.294L21.986 47.732a4.057 4.057 0 01-2.889 1.195 4.05 4.05 0 01-2.886-1.195L1.197 32.718A4.058 4.058 0 010 29.829c0-1.09.425-2.116 1.197-2.887L22.409 5.76c-5.547-1.26-8.99-1.346-9.997-1.051.425.435 1.75 1.36 4.95 2.62a.817.817 0 01-.599 1.52c-6.622-2.61-6.234-4.057-6.088-4.601.303-1.136 1.92-1.514 5.235-1.224 2.699.236 6.183.902 9.81 1.873 3.626.972 6.974 2.137 9.43 3.283 3.017 1.407 4.227 2.541 3.922 3.677-.294 1.096-1.822 1.23-2.324 1.274a3.941 3.941 0 00.586-1.747c-.35-.365-1.234-.934-2.648-1.612a3.26 3.26 0 00-.458 1.662 3.27 3.27 0 003.267 3.267 3.27 3.27 0 003.267-3.267 3.27 3.27 0 00-3.267-3.266.816.816 0 110-1.634c2.702 0 4.9 2.198 4.9 4.9 0 2.703-2.198 4.9-4.9 4.9a4.905 4.905 0 01-4.9-4.9 4.9 4.9 0 01.6-2.329c-1.954-.82-4.576-1.74-7.898-2.63-.35-.094-.688-.18-1.025-.266l-21.92 21.89a2.431 2.431 0 00-.719 1.731c0 .655.255 1.27.718 1.733l15.015 15.015c.925.925 2.539.925 3.464 0L45.083 22.29c1.592-1.59 2.212-3.032 2.212-5.14V4.084c0-1.35-1.1-2.45-2.45-2.45H31.778c-2.107 0-3.548.62-5.139 2.21a.816.816 0 11-1.155-1.154C27.37.803 29.251 0 31.778 0h13.067a4.088 4.088 0 014.083 4.084z" fill="#009774"/></svg>