<svg width="42" height="24" fill="none" xmlns="http://www.w3.org/2000/svg"><path d="M41.06 13.06a1.5 1.5 0 000-2.12l-9.545-9.547a1.5 1.5 0 10-2.122 2.122L37.88 12l-8.486 8.485a1.5 1.5 0 102.122 2.122l9.546-9.546zM0 13.5h40v-3H0v3z" fill="#009774"/><path d="M41.06 13.06a1.5 1.5 0 000-2.12l-9.545-9.547a1.5 1.5 0 10-2.122 2.122L37.88 12l-8.486 8.485a1.5 1.5 0 102.122 2.122l9.546-9.546zM0 13.5h40v-3H0v3z" fill="url(#paint0_linear)"/><defs><linearGradient id="paint0_linear" x1="0" y1="12.5" x2="40" y2="12.5" gradientUnits="userSpaceOnUse"><stop stop-color="#24B392"/><stop offset="1" stop-color="#009774"/></linearGradient></defs></svg>