<svg width="72" height="72" fill="none" xmlns="http://www.w3.org/2000/svg"><path d="M61.447 19.25l-16.875-5.22a4.104 4.104 0 00-5.107 2.7l-.63 2.026H18.292a4.07 4.07 0 00-4.072 4.072v34.785a4.09 4.09 0 004.072 4.095h8.505a3.988 3.988 0 002.43 2.07l17.303 5.333a3.82 3.82 0 001.215.18 4.17 4.17 0 001.935-.473 4.072 4.072 0 001.98-2.453l3.51-11.767v-.045l9-30.24a4.095 4.095 0 00-2.723-5.063zM18.292 60.156a2.541 2.541 0 01-2.542-2.543V22.828a2.555 2.555 0 012.543-2.542h24.232a2.565 2.565 0 012.565 2.497l.112 6.503.023 1.62.045 2.542.09 5.738.023 1.935.022 1.53.157 8.955v.18l.09 5.782a2.537 2.537 0 01-2.565 2.588H18.292zm31.905 5.782a2.65 2.65 0 01-1.26 1.53 2.528 2.528 0 01-1.192.292 2.845 2.845 0 01-.742-.112l-17.326-5.332a2.443 2.443 0 01-1.012-.608h14.422a4.124 4.124 0 003.806-2.582c.2-.502.3-1.04.29-1.58l-.068-4.793 6.367 2.093-3.285 11.092zm.113-35.505l5.85 7.852-.202.788-5.918-4.703a.821.821 0 00-.72-.134.845.845 0 00-.495.54l-1.193 4.364a.754.754 0 00.046.54l1.575 3.376-.068.157-2.25-1.575-.113-6.682.18-.675a.756.756 0 00-.157-.72l-.045-.045-.067-3.24 1.192-.495a.758.758 0 00.45-.495l1.102-4.006c.406-1.53 1.17-1.867 1.508-1.957.248.247.72.922.315 2.453l-1.102 4.005a.744.744 0 00.112.652zm12.375-6.57l-8.753 29.498-6.862-2.205-.112-7.65 2.25 1.597c.133.088.29.135.45.135.084.005.17-.01.247-.045a.736.736 0 00.472-.517l.428-1.486a.894.894 0 00-.045-.54l-1.575-3.374.81-2.97 5.918 4.68a.823.823 0 00.72.135.762.762 0 00.494-.518l.608-2.273a.744.744 0 00-.112-.652l-5.85-7.852.99-3.646c.9-3.24-1.148-4.297-1.238-4.32a.552.552 0 00-.27-.09c-.113 0-2.363-.157-3.263 3.105l-.99 3.645-.292.113-.09-5.872a4.106 4.106 0 00-4.095-4.005h-2.093l.495-1.576a2.54 2.54 0 011.26-1.507 2.67 2.67 0 011.193-.293c.251.005.501.043.742.113l16.876 5.22a2.537 2.537 0 011.687 3.15z" fill="#009774"/><path d="M43.087 54.395a.759.759 0 00.765-.765.773.773 0 00-.764-.765H18.291a.773.773 0 00-.708 1.059.758.758 0 00.709.471h24.794zM21.015 42.268a11.21 11.21 0 008.91 5.378c.127.018.255.026.383.022.059.011.12.011.18 0a.626.626 0 00.202.023c.135 0 .293-.023.427-.023.136.004.271-.004.405-.022a11.237 11.237 0 008.843-5.378.538.538 0 00.135-.18c0-.022.023-.022.023-.045.067-.112.112-.202.18-.315 0-.022.022-.022.022-.045.286-.534.526-1.09.72-1.665.416-1.193.63-2.448.63-3.712 0-.293-.023-.585-.045-.878-.033-.506-.1-1.01-.203-1.507a10.315 10.315 0 00-.427-1.418 10.867 10.867 0 00-.585-1.395 4.997 4.997 0 00-.337-.585v-.022a.944.944 0 00-.113-.158 11.153 11.153 0 00-2.587-2.947 9.142 9.142 0 00-1.328-.9A11.355 11.355 0 0020.902 30.5v.022a11.264 11.264 0 000 11.565.49.49 0 00.113.18zm.9-10.395c.907.4 1.859.687 2.835.855a22.623 22.623 0 00-.293 3.578c.002 1.19.1 2.38.293 3.555-.97.192-1.92.478-2.835.855a9.771 9.771 0 010-8.843zm4.073 4.433c-.009-1.11.09-2.217.292-3.308a26.54 26.54 0 003.645.293v6.03c-1.22.016-2.438.114-3.645.292-.203-1.09-.3-2.198-.293-3.307zm9.135-3.308c.137.714.227 1.435.27 2.16 0 .383.022.765.022 1.148a17.156 17.156 0 01-.292 3.285c-.338-.045-.698-.09-1.058-.135a35.234 35.234 0 00-1.575-.113c-.337-.022-.698-.022-1.035-.022v-6.03a31.308 31.308 0 002.97-.203 6.57 6.57 0 00.698-.09zm-5.198 7.853v5.152a6.8 6.8 0 01-3.308-4.905 25.781 25.781 0 013.308-.248zm2.205 4.815c-.21.145-.437.266-.675.36V40.85h.563c.54.022 1.057.067 1.575.112.404.045.81.09 1.192.135a8.01 8.01 0 01-2.655 4.568zm-.675-13.928v-5.152a6.865 6.865 0 013.33 4.927c-1.104.145-2.216.22-3.33.225zm-1.53-5.13v5.13a25.765 25.765 0 01-3.308-.225 6.804 6.804 0 013.308-4.905zm-7.223 15.435c.775-.297 1.573-.53 2.385-.697a12.391 12.391 0 001.823 4.072 9.976 9.976 0 01-4.207-3.375zm11.813 3.353a12.82 12.82 0 001.8-4.028c.806.153 1.597.38 2.363.675a9.82 9.82 0 01-4.163 3.352zm5.782-11.273a8.8 8.8 0 01.226 1.53c.018.217.026.435.022.653a9.729 9.729 0 01-1.058 4.41 14.71 14.71 0 00-2.834-.855c.193-1.175.29-2.364.292-3.555 0-.248 0-.495-.023-.743v-.54a35.606 35.606 0 00-.27-2.295 13.974 13.974 0 001.051-.231.022.022 0 00.007-.016 9.14 9.14 0 001.777-.608c.206.398.379.812.518 1.238.124.329.222.667.292 1.012zm-4.32-6.12a9.521 9.521 0 012.701 2.565c-.669.27-1.362.474-2.07.608-.09.022-.203.045-.293.067a15.606 15.606 0 00-.697-2.047 11.428 11.428 0 00-1.103-1.958 8.183 8.183 0 011.462.765zm-9.067-.787a11.88 11.88 0 00-1.8 4.027 13.854 13.854 0 01-2.385-.675 9.565 9.565 0 014.185-3.353z" fill="#009774"/></svg>