<svg width="72" height="72" fill="none" xmlns="http://www.w3.org/2000/svg"><g clip-path="url(#clip0)" fill="#009774"><path d="M35.86 23.504c2.141-.28 4.315-.14 6.403.41.015.005.026.017.042.02.016.003.04 0 .06.009a16.524 16.524 0 015.71 2.816.816.816 0 001.14-.153.81.81 0 00-.154-1.139 18.141 18.141 0 00-5.558-2.865l.74-2.762a2.925 2.925 0 10-2.885-3.673 2.917 2.917 0 001.317 3.25l-.742 2.77a18.307 18.307 0 00-6.284-.289.812.812 0 10.207 1.611l.004-.005zm7.07-6.916a1.3 1.3 0 011.59-.918 1.3 1.3 0 01-.672 2.507 1.3 1.3 0 01-.919-1.589zm-2.783 39.907c-2.142.28-4.32.142-6.409-.408-.016 0-.027-.017-.043-.021h-.03a16.55 16.55 0 01-5.675-2.778.811.811 0 00-.975 1.3 18.173 18.173 0 005.483 2.827l-.74 2.758a2.883 2.883 0 00-2.765 2.144 2.925 2.925 0 002.067 3.575 2.914 2.914 0 002.264-5.309l.741-2.763c1.28.284 2.589.43 3.9.433.797 0 1.593-.051 2.384-.154a.81.81 0 00.621-1.218.814.814 0 00-.83-.393l.007.007zm-7.076 6.917a1.3 1.3 0 01-1.59.918 1.3 1.3 0 01-.918-1.589 1.3 1.3 0 012.508.672v-.001zM21.107 26.025c.49-.001.973-.128 1.401-.367l2.035 2.034a18.077 18.077 0 00-3.39 5.266.81.81 0 101.496.627 16.696 16.696 0 018.992-8.955.81.81 0 00.266-1.325.813.813 0 00-.886-.178 18.135 18.135 0 00-5.333 3.421l-2.03-2.04a2.886 2.886 0 00-.485-3.466 2.925 2.925 0 10-2.066 4.983zm-.918-3.836a1.301 1.301 0 111.835 1.835 1.326 1.326 0 01-1.835 0 1.3 1.3 0 010-1.835zM53.5 54.35l-2.043-2.042a18.103 18.103 0 003.376-5.224.81.81 0 00-.435-1.064.812.812 0 00-1.063.435 16.699 16.699 0 01-8.899 8.883.812.812 0 10.628 1.5 18.106 18.106 0 005.244-3.384l2.034 2.038a2.916 2.916 0 004.616 3.467 2.925 2.925 0 000-4.134 2.994 2.994 0 00-3.459-.475zm2.311 3.467a1.3 1.3 0 01-2.215-.918 1.3 1.3 0 012.215-.918 1.3 1.3 0 010 1.83v.006zM20.603 45.503a18.155 18.155 0 002.845 5.525.813.813 0 001.293-.983 16.542 16.542 0 01-2.804-5.698v-.043c0-.014-.012-.022-.016-.035a16.684 16.684 0 01-.427-6.327.813.813 0 10-1.613-.2 18.298 18.298 0 00.302 6.19l-2.766.744a2.925 2.925 0 00-3.25-1.318 2.924 2.924 0 00.752 5.748c.256 0 .51-.034.758-.1a2.886 2.886 0 002.155-2.762l2.77-.74zm-4.55 1.33a1.3 1.3 0 11.13-.986 1.288 1.288 0 01-.136.986h.006zM63.9 33.06a2.925 2.925 0 00-3.575-2.067 2.887 2.887 0 00-2.153 2.762l-2.77.742a18.138 18.138 0 00-2.81-5.48.812.812 0 10-1.3.974 16.543 16.543 0 012.773 5.657v.043c.003.01.008.02.013.029a16.67 16.67 0 01.438 6.238.813.813 0 00.711.902c.033 0 .065.005.097.005a.812.812 0 00.806-.717c.235-2.031.13-4.088-.315-6.085l2.768-.738A2.917 2.917 0 0063.9 33.06zm-2.491 2.01a1.3 1.3 0 01-1.59-.917 1.3 1.3 0 01.917-1.589 1.3 1.3 0 01.672 2.508v-.001zm-12.581-7.047a.815.815 0 000 1.149.813.813 0 001.15 0l2.864-2.864a2.391 2.391 0 10-1.176-1.123l-2.838 2.838zm4.424-4.433a.759.759 0 111.073 1.072.759.759 0 01-1.073-1.072zM27.188 51.961a.812.812 0 10-1.15-1.15l-2.863 2.865a2.384 2.384 0 00-2.633.496 2.383 2.383 0 103.81.625l2.836-2.836zm-4.424 4.433a.758.758 0 11-1.072-1.073.758.758 0 011.072 1.073zm9.251-35.63l1.037 3.873a.813.813 0 001.57-.42l-1.048-3.913a2.384 2.384 0 00.886-2.527 2.384 2.384 0 10-2.445 2.988zm-.055-3.103a.758.758 0 11.394 1.465.758.758 0 01-.394-1.465zm13.09 41.866a2.361 2.361 0 00-1.048-.305l-1.038-3.874a.812.812 0 00-1.294-.46.815.815 0 00-.277.88l1.048 3.91a2.378 2.378 0 00-.886 2.53 2.384 2.384 0 002.916 1.686 2.383 2.383 0 00.575-4.367h.004zm-.535 2.444a.758.758 0 11-.055-.837.758.758 0 01.055.837zM15.76 36.562a2.384 2.384 0 002.6-.992l3.868 1.037a.834.834 0 00.753-.174.813.813 0 00-.328-1.397l-3.911-1.047a2.383 2.383 0 00-1.748-2.033 2.384 2.384 0 00-1.234 4.606zm-.116-2.499a.76.76 0 111.468.39.76.76 0 01-1.468-.39zm44.611 9.36a2.349 2.349 0 00-2.6.993l-3.875-1.038a.813.813 0 00-.42 1.57l3.913 1.048a2.384 2.384 0 001.744 2.032 2.383 2.383 0 001.232-4.605h.006zm.116 2.499a.758.758 0 11-1.465-.392.758.758 0 011.465.392zm-36.436-5.049a3.38 3.38 0 106.76 0 3.38 3.38 0 00-6.76 0zm5.134 0a1.754 1.754 0 11-3.509 0 1.754 1.754 0 013.509 0zM38 55.05a5.245 5.245 0 100-10.491 5.245 5.245 0 000 10.49zm0-8.866a3.62 3.62 0 110 7.24 3.62 3.62 0 010-7.24zm-1.429-20.827a3.816 3.816 0 10-.01 7.631 3.816 3.816 0 00.01-7.631zm0 6.007a2.192 2.192 0 11-.008-4.385 2.192 2.192 0 01.008 4.385zm11.444-.3a3.179 3.179 0 10-.002 6.357 3.179 3.179 0 00.002-6.357zm0 4.73a1.554 1.554 0 11-.001-3.108 1.554 1.554 0 01.001 3.108zm-11.386 2.512a2.491 2.491 0 104.982 0 2.491 2.491 0 00-4.982 0zm3.358 0a.867.867 0 11-1.738 0 .867.867 0 011.74 0h-.002zm8.028 6.253a2.492 2.492 0 100 4.983 2.492 2.492 0 000-4.983zm0 3.358a.867.867 0 110-1.738.867.867 0 010 1.74v-.002z"/></g><defs><clipPath id="clip0"><path fill="#fff" transform="translate(12 14)" d="M0 0h52v52H0z"/></clipPath></defs></svg>