<?xml version="1.0" encoding="utf-8"?><svg xmlns="http://www.w3.org/2000/svg" xmlns:xlink="http://www.w3.org/1999/xlink"><symbol fill="none" viewBox="0 0 44 44" id="gost" xmlns="http://www.w3.org/2000/svg"><path d="M35.325 42.163s-9.64 1.107-12.87 1.118c-3.503.01-13.97-1.118-13.97-1.118s-2.97-5.48-5.069-12.75C1.034 21.163.566 16.218.566 16.218s5.5-5.256 9.89-8.5C16.72 3.093 21.96.785 21.96.785s6.876 3.188 11.817 6.934c5.024 3.808 9.58 8.835 9.58 8.835s-.695 7.047-2.44 12.595c-1.63 5.186-5.59 13.015-5.59 13.015z" stroke="#B0BED0" stroke-miterlimit="10"/><path d="M19.431 33.68c9.671.319 14.014-3 14.014-3l.003-2.907s-.542.422-1.186.55c-2.943.581-10.98 1.344-11.04-4.642-.054-5.262 8.254-4.802 9.963-4.501 1.282.226 2.382.561 2.382.561l-.102-2.785s-6.206-3.701-14.311-2.973c-3.62.324-12.317 2.627-12.317 9.69-.001 6.859 8.575 9.875 12.595 10.007z" fill="#B0BED0"/><path d="M34.785 27.214h-2.456l.003-4.659h-2.44l.008-2.387h7.123v2.387H34.78l.004 4.659z" fill="#B0BED0"/></symbol></svg>